<svg height="512" width="367" xmlns="http://www.w3.org/2000/svg"><path d="m366.3450928 400.1548767c-27.789032 12.2000427-25.5113525 40.6948547-57.0782776 80.0321045-30.0215759 37.4114685-81.6324005 42.4969177-130.7093201 11.6911011-14.9933167-9.4114075-52.6532135-20.0047607-70.666153-54.1831665-17.2627335-32.7549438-28.2895584-108.9725342-16.8582687-151.5800781 5.5587463-20.7189636 22.6753159-38.2214508 44.3395462-49.1025848 20.7768707-10.4354401 36.718689-16.9737396 14.0870514-54.2697601 0 0-18.1769714 9.6988983-20.9417267 19.2036896-3.8746262 13.3203278-50.4694214 46.9579315-54.1222153 52.4371185-11.3615112 17.0422668-27.2908859 22.1860046-35.3280754 26.5611572-1.2971306-7.0415649 17.7892418-16.8627014 9.4505348-18.901062s-31.739851 10.3552246-33.725441 5.0032043c-.7015152-1.8908691 12.2119942-5.8309326 14.0831547-9.2652283-8.338707-2.0383148-13.3419323-6.115036-13.3419323-6.115036s36.3197021-3.3354797 50.9587669-1.1118164c6.6760483-9.8177032 15.0096664-28.9075317 33.3548279-46.3261566 0 0-22.8614502 2.552002-26.4448471 4.385376-3.5834045 1.8333588-3.8334122 14.3336029-6.0834503 15.0002899-2.2500458.6666718 6.6667938-21.4170837-24.7258263-13.7539062 0 0-11.5841846 11.8519897-12.433691 32.7255249 0 0-5.8320465-5.9685364-9.087162-14.7059479-1.7126999-4.5972443-10.6219587 3.2550964-14.2197189.6853027 8.5177794-5.7279968 10.438015-15.2484741 9.251379-26.5549164-7.668538 1.5731811-12.6561172-.5505219-16.104248-4.7970124 15.2020979 1.7965088 27.8862286-20.1561584 39.404026-53.109787l-15.0763226 8.737442c6.8528748-39.9180069 37.0055161-32.7224808 57.5641403-66.3015671-6.5659561-2.2758789-12.1380386-.8904266-16.9608536 3.2551041 9.2513733-19.3593674 28.0833969 3.6138763 44.4797897-48.1155968 3.6949615-10.8539524 10.8413849-15.9129124 20.4194031-24.7476254 7.3816986-6.8088522 12.9823608-12.9088926 25.8797607-16.3886051 9.7321777-2.6257372 48.1402893 3.9133925 61.4137268 27.7044296 11.5431671 20.6897392 5.7733765 66.9711914-12.0086365 80.827301 0 0-2.8866882 4.9651031 2.3093567 9.1219406 5.1960449 4.1568298 14.8953247 14.8953171 25.9802094 43.3003464 4.8496399 14.8953094 31.638092 14.3179626 59.0039368 37.8733673.4407654-8.683075 5.3831482-16.0627289 10.1221924-22.8069458 5.955719-8.4756927 12.2540283-15.3066254 16.3956909-15.2124939 16.0576477 10.4797211-9.3132019 30.9759216-9.3132019 30.9759216 2.3205872 1.2048645 6.2139893 1.2491455 11.003479.6322632-5.1221619 11.363678-21.5110474 18.6508179-27.7338562 18.6089325-14.9346619-.1004944-51.0491028-13.8142242-74.1158905-25.9959259-5.8631287 5.8654327-11.6243439 21.1842194-18.6458893 36.6608429-6.9280243 32.0999908 32.4934998 76.3876953-43.4157867 133.7114563-9.7858887 7.3899231-16.6567078 39.4077454-16.2520752 56.5791016.6966705 29.5650635 15.8192596 50.3076172 42.2611237 65.3546448 46.7379456-15.4898987 19.1785278-106.164856 145.8066711-127.7937622-25.8908997 25.6434326-29.7197266 47.5023499-43.7333374 76.0643005 30.0701619-6.0870017 18.5610982-19.0880393 81.5574361-25.9932822z"/></svg>